<svg xmlns="http://www.w3.org/2000/svg" width="1600" height="900" viewBox="0 0 1600 900" font-family="DejaVu Sans, Liberation Sans, Arial, sans-serif">
  <defs>
    <linearGradient id="bg" gradientUnits="userSpaceOnUse" x1="0" y1="0" x2="1600" y2="900">
      <stop offset="0" stop-color="#0A0F1C"/><stop offset="1" stop-color="#0C1730"/>
    </linearGradient>
    <linearGradient id="rg" gradientUnits="userSpaceOnUse" x1="0" y1="0" x2="1" y2="0">
      <stop offset="0" stop-color="#34E5B0"/><stop offset="1" stop-color="#4C9BFF"/>
    </linearGradient>
  </defs>
  <rect width="1600" height="900" fill="url(#bg)"/>
  <g stroke="#16223A" stroke-width="1" opacity="0.6">
    <line x1="0" y1="150" x2="1600" y2="150"/><line x1="0" y1="450" x2="1600" y2="450"/><line x1="0" y1="750" x2="1600" y2="750"/>
    <line x1="400" y1="0" x2="400" y2="900"/><line x1="800" y1="0" x2="800" y2="900"/><line x1="1200" y1="0" x2="1200" y2="900"/>
  </g>
  <rect x="120" y="96" width="190" height="34" rx="17" fill="#0F1C33" stroke="#244065"/>
  <text x="215" y="119" fill="#34E5B0" font-size="16" letter-spacing="3" text-anchor="middle">EXAMPLES</text>
  <text x="118" y="208" fill="#EAF1FC" font-size="50" font-weight="bold">Listings agents can discover now.</text>

  <!-- 3 cards top row, 3 bottom -->
  <!-- card template: x width 440 ; rows y=300 / y=560 -->
  <!-- helper readiness ring drawn as arc approximations using stroke-dasharray on circle -->
  <g font-family="DejaVu Sans">
    <!-- Card 1 -->
    <rect x="120" y="300" width="430" height="220" rx="16" fill="#0E1B30" stroke="#26415F"/>
    <text x="150" y="346" fill="#EAF1FC" font-size="24" font-weight="bold">LakeHouse Spa</text>
    <text x="150" y="378" fill="#8597B5" font-size="17">/lakehouse-spa-packages-specials</text>
    <text x="150" y="430" fill="#8597B5" font-size="17">Curated day-spa packages &amp; specials.</text>
    <rect x="150" y="452" width="120" height="34" rx="8" fill="#11223A"/><text x="210" y="475" fill="#8FB4E6" font-size="16" text-anchor="middle">5 offers</text>
    <rect x="282" y="452" width="160" height="34" rx="8" fill="#11223A"/><text x="362" y="475" fill="#8FB4E6" font-size="16" text-anchor="middle">Austin, Texas</text>
    <circle cx="495" cy="335" r="22" fill="none" stroke="#16233D" stroke-width="6"/>
    <circle cx="495" cy="335" r="22" fill="none" stroke="url(#rg)" stroke-width="6" stroke-dasharray="138 0" transform="rotate(-90 495 335)" stroke-linecap="round"/>
    <text x="495" y="341" fill="#34E5B0" font-size="16" font-weight="bold" text-anchor="middle">100</text>

    <!-- Card 2 -->
    <rect x="585" y="300" width="430" height="220" rx="16" fill="#0E1B30" stroke="#26415F"/>
    <text x="615" y="346" fill="#EAF1FC" font-size="24" font-weight="bold">Kismet Pros</text>
    <text x="615" y="378" fill="#8597B5" font-size="17">/kismetpros</text>
    <text x="615" y="430" fill="#8597B5" font-size="17">Residential cleaning, DFW Metro.</text>
    <rect x="615" y="452" width="120" height="34" rx="8" fill="#11223A"/><text x="675" y="475" fill="#8FB4E6" font-size="16" text-anchor="middle">4 offers</text>
    <rect x="747" y="452" width="110" height="34" rx="8" fill="#11223A"/><text x="802" y="475" fill="#8FB4E6" font-size="16" text-anchor="middle">Dallas</text>
    <circle cx="960" cy="335" r="22" fill="none" stroke="#16233D" stroke-width="6"/>
    <circle cx="960" cy="335" r="22" fill="none" stroke="url(#rg)" stroke-width="6" stroke-dasharray="126 138" transform="rotate(-90 960 335)" stroke-linecap="round"/>
    <text x="960" y="341" fill="#34E5B0" font-size="16" font-weight="bold" text-anchor="middle">91</text>

    <!-- Card 3 -->
    <rect x="1050" y="300" width="430" height="220" rx="16" fill="#0E1B30" stroke="#26415F"/>
    <text x="1080" y="346" fill="#EAF1FC" font-size="24" font-weight="bold">Negotiation Lab</text>
    <text x="1080" y="378" fill="#8597B5" font-size="17">/nexez-agent-negotiation-lab</text>
    <text x="1080" y="430" fill="#8597B5" font-size="17">Agent-readable negotiation flows.</text>
    <rect x="1080" y="452" width="120" height="34" rx="8" fill="#11223A"/><text x="1140" y="475" fill="#8FB4E6" font-size="16" text-anchor="middle">1 offer</text>
    <rect x="1212" y="452" width="160" height="34" rx="8" fill="#11223A"/><text x="1292" y="475" fill="#8FB4E6" font-size="16" text-anchor="middle">Worldwide</text>
    <circle cx="1425" cy="335" r="22" fill="none" stroke="#16233D" stroke-width="6"/>
    <circle cx="1425" cy="335" r="22" fill="none" stroke="url(#rg)" stroke-width="6" stroke-dasharray="138 0" transform="rotate(-90 1425 335)" stroke-linecap="round"/>
    <text x="1425" y="341" fill="#34E5B0" font-size="16" font-weight="bold" text-anchor="middle">100</text>

    <!-- Card 4 -->
    <rect x="120" y="560" width="430" height="180" rx="16" fill="#0E1B30" stroke="#26415F"/>
    <text x="150" y="606" fill="#EAF1FC" font-size="24" font-weight="bold">Strategy Activation</text>
    <text x="150" y="638" fill="#8597B5" font-size="17">/strategy-activation-consulting</text>
    <rect x="150" y="662" width="130" height="34" rx="8" fill="#11223A"/><text x="215" y="685" fill="#8FB4E6" font-size="16" text-anchor="middle">12 offers</text>
    <rect x="292" y="662" width="110" height="34" rx="8" fill="#11223A"/><text x="347" y="685" fill="#8FB4E6" font-size="16" text-anchor="middle">Austin</text>
    <circle cx="495" cy="595" r="22" fill="none" stroke="#16233D" stroke-width="6"/>
    <circle cx="495" cy="595" r="22" fill="none" stroke="url(#rg)" stroke-width="6" stroke-dasharray="138 0" transform="rotate(-90 495 595)" stroke-linecap="round"/>
    <text x="495" y="601" fill="#34E5B0" font-size="16" font-weight="bold" text-anchor="middle">100</text>

    <!-- Card 5 -->
    <rect x="585" y="560" width="430" height="180" rx="16" fill="#0E1B30" stroke="#26415F"/>
    <text x="615" y="606" fill="#EAF1FC" font-size="24" font-weight="bold">Mobility Massage</text>
    <text x="615" y="638" fill="#8597B5" font-size="17">/mobility-massage-austin</text>
    <rect x="615" y="662" width="120" height="34" rx="8" fill="#11223A"/><text x="675" y="685" fill="#8FB4E6" font-size="16" text-anchor="middle">4 offers</text>
    <rect x="747" y="662" width="110" height="34" rx="8" fill="#11223A"/><text x="802" y="685" fill="#8FB4E6" font-size="16" text-anchor="middle">Austin</text>
    <circle cx="960" cy="595" r="22" fill="none" stroke="#16233D" stroke-width="6"/>
    <circle cx="960" cy="595" r="22" fill="none" stroke="url(#rg)" stroke-width="6" stroke-dasharray="101 138" transform="rotate(-90 960 595)" stroke-linecap="round"/>
    <text x="960" y="601" fill="#34E5B0" font-size="16" font-weight="bold" text-anchor="middle">73</text>

    <!-- Card 6 : browse directory CTA -->
    <rect x="1050" y="560" width="430" height="180" rx="16" fill="#0C2A22" stroke="url(#rg)" stroke-width="2.5"/>
    <text x="1265" y="640" fill="#EAF1FC" font-size="26" font-weight="bold" text-anchor="middle">Browse the directory</text>
    <text x="1265" y="678" fill="#7FD9C2" font-size="18" text-anchor="middle">Listings agents can discover →</text>
  </g>
</svg>
